# xmcd
#
# Track frame offsets:
# 150
# 18912
# 35043
# 50514
# 63567
# 79886
# 97286
# 112812
# 127465
# 142561
# 158345
# 174593
# 188423
# 205043
#
# Disc length: 2944 seconds
#
#
# Revision: 0
# Processed by: cddbd v1.5.2PL0 Copyright (c) Steve Scherf et al.
# Submitted via: FreeRIP 2.943 
#
DISCID=b70b7e0e
DTITLE=Forró Língua de Cobra - Uma tonelada de sucesso!!!
DYEAR=2005
DGENRE=Forro
TTITLE0=Sou eu
TTITLE1=Escanteio
TTITLE2=Alem do infinito
TTITLE3=Amor e paixao
TTITLE4=Run Away
TTITLE5=Amor na lama
TTITLE6=Sopa pro azar
TTITLE7=Chama da paixão
TTITLE8=Nao vá sair de mim
TTITLE9=Volta pra casa
TTITLE10=Meu quindim
TTITLE11=Ela é demais
TTITLE12=Sei que vai doer
TTITLE13=Corpo sem alma
EXTD=
EXTT0=
EXTT1=
EXTT2=
EXTT3=
EXTT4=
EXTT5=
EXTT6=
EXTT7=
EXTT8=
EXTT9=
EXTT10=
EXTT11=
EXTT12=
EXTT13=
PLAYORDER=
